<svg width="72" height="62" viewBox="0 0 72 62" fill="none" xmlns="http://www.w3.org/2000/svg">
<g clip-path="url(#clip0_0_267)">
<path d="M59.4865 15.5979L26.0216 18.0871C24.6117 18.1919 23.4023 19.0696 22.8653 20.3773C22.3283 21.6851 22.5719 23.1595 23.5011 24.2248L30.8401 32.6391L42.8979 26.551C43.4527 26.2709 44.1297 26.4936 44.4099 27.0485C44.6901 27.6033 44.4674 28.2803 43.9125 28.5605L31.8547 34.6486L34.2682 45.5496C34.5738 46.93 35.6154 48.0014 36.9867 48.3457C38.3606 48.6906 39.7837 48.2358 40.7036 47.1655L62.5751 21.715C63.5709 20.5563 63.7617 18.9892 63.0731 17.6253C62.3844 16.2615 61.0102 15.4845 59.4865 15.5979Z" fill="#3F6EEC"/>
</g>
<line x1="7.98181" y1="39.0501" x2="23.8591" y2="31.0336" stroke="#3F6EEC" stroke-width="2.19001" stroke-linecap="round"/>
<line x1="15.5463" y1="40.3948" x2="25.9367" y2="35.1486" stroke="#FBA333" stroke-width="2.19001" stroke-linecap="round"/>
<line x1="22.4252" y1="42.0858" x2="28.0146" y2="39.2636" stroke="#3F6EEC" stroke-width="2.19001" stroke-linecap="round"/>
<defs>
<clipPath id="clip0_0_267">
<rect width="38.416" height="38.416" fill="white" transform="translate(20.1229 17.7936) rotate(-26.7895)"/>
</clipPath>
</defs>
</svg>
